<svg xmlns="http://www.w3.org/2000/svg" xmlns:xlink="http://www.w3.org/1999/xlink" width="122.066" height="194.906"><defs><rect id="a" width="122.066" height="194.906"/></defs><clipPath id="b"><use xlink:href="#a" overflow="visible"/></clipPath><path clip-path="url(#b)" d="M19.363 136.11c2.627 0 3.547-.819 3.547-2.068 0-1.676-.854-2.332-6.076-3.58-5.256-1.248-6.668-3.549-6.668-6.405 0-5.09 3.81-7.259 8.704-7.259 6.471 0 8.737 3.646 8.737 6.176 0 1.182-.526 2.167-2.365 2.167-1.347 0-1.971-.788-2.332-1.675-.789-1.905-1.643-2.791-4.434-2.791-2.332 0-3.515 1.05-3.515 2.758 0 1.643.559 2.856 4.993 3.745 6.47 1.281 7.817 3.645 7.817 6.667 0 3.449-2.89 6.208-8.934 6.208-6.372 0-9.295-3.811-9.295-6.273 0-1.479.69-2.169 1.905-2.169 2.99-.001 2.004 4.499 7.916 4.499"/><path clip-path="url(#b)" d="M36.843 130.626c-.591 0-.755.394-.755.82 0 .395-.033 1.446-.033 2.53 0 1.083.558 1.346 1.642 1.346l8.802-.031c1.117 0 1.479.491 1.479 2.231 0 1.349-.296 1.905-1.347 1.905-.591 0-3.022-.032-5.813-.032-2.727 0-6.964.032-7.818.032-1.379 0-1.543-.591-1.543-1.412 0-.82.098-7.094.098-10.247 0-3.121-.066-8.014-.066-9.033 0-1.018.263-1.544 1.708-1.544 5.88 0 11.792.132 12.777.132.953 0 1.445.459 1.445 2.069 0 1.445-.492 2.07-1.74 2.07-.493 0-7.128-.132-8.376-.132-.756 0-1.084.394-1.084 1.084v3.612c0 .756.197 1.083 1.084 1.083h8.474c.985 0 1.379.429 1.379 1.775 0 1.182-.262 1.74-1.28 1.74h-9.033z"/><path clip-path="url(#b)" d="M57.135 124.615c1.642 5.386 2.595 8.081 3.055 9.46.098.328.229.524.623.524.396 0 .526-.196.625-.524.591-1.741 1.839-5.88 4.828-15.274.395-1.247.887-1.674 2.694-1.674 1.575 0 2.004.459 2.004 1.215 0 .591-.297 1.379-.494 1.97-.426 1.281-5.123 14.584-5.616 15.996-.821 2.397-1.839 3.188-4.204 3.188-2.464 0-3.416-1.02-4.172-2.99-.624-1.675-1.314-3.547-3.087-8.933-2.365-7.128-3.055-8.212-3.055-9.165 0-.788.362-1.28 2.233-1.28 2.004 0 2.398.459 2.759 1.642l1.807 5.845z"/><path clip-path="url(#b)" d="M79.065 130.626c-.591 0-.756.394-.756.82 0 .395-.031 1.446-.031 2.53 0 1.083.558 1.346 1.641 1.346l11.149-.031c1.116 0 1.479.491 1.479 2.231 0 1.349-.296 1.905-1.347 1.905-.591 0-3.022-.032-5.814-.032-2.726 0-9.309.032-10.163.032-1.38 0-1.543-.591-1.543-1.412 0-.82.099-7.094.099-10.247 0-3.121-.066-8.014-.066-9.033 0-1.018.263-1.544 1.708-1.544 5.88 0 14.138.132 15.123.132.952 0 1.445.459 1.445 2.069 0 1.445-.493 2.07-1.74 2.07-.493 0-9.475-.132-10.723-.132-.756 0-1.083.394-1.083 1.084v3.612c0 .756.196 1.083 1.083 1.083h9.647c.985 0 1.379.429 1.379 1.775 0 1.182-.263 1.74-1.28 1.74h-10.207z"/><path clip-path="url(#b)" d="M97.263 139.428c-.985 0-1.676-.624-1.676-1.543 0-.657.067-7.521.067-10.28 0-2.76-.067-7.028-.067-7.456 0-1.839.624-2.891 2.792-2.891 2.07 0 2.661.985 3.482 2.331.558.92 3.35 5.42 5.484 9.066 1.972 3.35 2.233 4.041 2.496 4.041.164 0 .231-.101.231-.396 0-.558-.132-3.185-.132-6.731 0-5.288-.1-4.96-.1-6.635 0-.985.493-1.576 1.708-1.576h.888c1.051 0 1.675.426 1.675 1.608v17.474c0 1.904-.69 2.988-3.121 2.988-1.871 0-2.823-1.084-3.743-2.659-.658-1.15-3.679-6.109-5.091-8.673-1.972-3.579-2.004-4.171-2.333-4.171-.163 0-.163.1-.163.329 0 .493.098 2.857.098 6.273 0 .689.032 5.944.032 7.357 0 1.084-.853 1.543-1.937 1.543h-.59z"/><path clip-path="url(#b)" d="M23.239 159.689c0-1.117-.23-1.182-1.15-1.182h-7.226c-.492 0-.689.164-.689.92l-.066 2.364c.032 2.167.032 2.495.032 3.941 0 .985-.788 1.379-2.496 1.379-1.51 0-2.102-.492-2.102-1.478 0-.723.066-2.464.066-6.307l.131-12.974c0-1.313.822-1.511 2.431-1.511 1.807 0 2.267.361 2.267 1.477 0 .889-.099 4.5-.165 7.852 0 .688.099.82.788.82 1.347 0 4.566.066 6.832.066 1.347 0 1.446-.164 1.446-1.38 0-2.364.065-6.635.065-7.358 0-1.279.854-1.543 2.398-1.543 1.576 0 2.201.395 2.201 1.479 0 1.74-.263 13.172-.231 15.403 0 2.169.034 2.53.034 4.009 0 1.115-.888 1.444-2.365 1.444-1.676 0-2.201-.559-2.201-1.379v-6.042z"/><path clip-path="url(#b)" d="M36.843 158.311c-.591 0-.755.394-.755.819 0 .396-.033 1.446-.033 2.53 0 1.083.558 1.348 1.642 1.348l8.802-.033c1.117 0 1.479.492 1.479 2.232 0 1.347-.296 1.905-1.347 1.905-.591 0-3.022-.033-5.813-.033-2.727 0-6.964.033-7.818.033-1.379 0-1.543-.591-1.543-1.412s.098-7.094.098-10.248c0-3.121-.066-8.014-.066-9.033 0-1.017.263-1.543 1.708-1.543 5.88 0 11.792.133 12.777.133.953 0 1.445.459 1.445 2.068 0 1.444-.492 2.069-1.74 2.069-.493 0-7.128-.131-8.376-.131-.756 0-1.084.394-1.084 1.084v3.612c0 .756.197 1.083 1.084 1.083h8.474c.985 0 1.379.429 1.379 1.774 0 1.182-.262 1.741-1.28 1.741h-9.033z"/><path clip-path="url(#b)" d="M57.627 160.937c-.821 0-1.083.296-1.215.691l-1.314 3.876c-.361 1.05-.657 1.608-2.562 1.608-1.543 0-2.069-.46-2.069-1.28 0-.56.132-.821.789-2.597 1.642-4.4 4.663-12.514 5.353-14.45 1.183-3.284 1.643-4.008 4.205-4.008 2.365 0 2.89 1.02 3.842 3.843 1.972 5.749 3.908 10.544 5.124 13.729.755 2.003 1.052 2.891 1.052 3.449 0 .624-.263 1.313-2.268 1.313-1.904 0-2.266-.427-2.628-1.215-.36-.821-1.182-3.021-1.575-4.205-.23-.656-.428-.756-1.413-.756h-5.321zm4.862-3.12c.262 0 .459-.099.459-.427 0-.394-.295-1.182-.985-3.021l-.985-2.693c-.132-.396-.263-.592-.526-.592s-.427.263-.526.592c-.262.754-.459 1.247-.886 2.561-.887 2.727-.985 2.858-.985 3.22 0 .229.164.361.492.361h3.942z"/><path clip-path="url(#b)" d="M79.527 144.482c10.215 0 14.353 4.763 14.353 11.431 0 4.991-2.069 7.883-5.024 9.788-2.431 1.543-4.894 1.806-8.048 1.806-4.729 0-6.602-.329-6.896-1.479-.132-.492-.132-1.248-.132-3.316 0-2.563 0-7.128-.099-15.668-.034-2.134.821-2.562 5.846-2.562m9.394 11.266c0-4.27-2.628-6.963-8.178-6.963-1.644 0-2.299.36-2.299 1.051 0 1.708.098 11.232.098 12.449 0 .688.558 1.182 2.168 1.182 2.988 0 4.269-.46 5.354-1.149 1.576-1.019 2.857-3.384 2.857-6.57"/><path clip-path="url(#b)" d="M105.703 163.795c2.629 0 3.549-.82 3.549-2.068 0-1.677-.855-2.332-6.077-3.581-5.255-1.247-6.668-3.547-6.668-6.405 0-5.091 3.811-7.258 8.704-7.258 6.471 0 8.737 3.645 8.737 6.175 0 1.182-.525 2.167-2.365 2.167-1.347 0-1.971-.788-2.331-1.675-.79-1.905-1.644-2.792-4.436-2.792-2.332 0-3.514 1.052-3.514 2.76 0 1.642.558 2.857 4.992 3.744 6.47 1.281 7.816 3.646 7.816 6.668 0 3.448-2.89 6.208-8.934 6.208-6.371 0-9.295-3.81-9.295-6.274 0-1.478.689-2.168 1.904-2.168 2.991-.001 2.007 4.499 7.918 4.499"/><path clip-path="url(#b)" d="M14.973 173.312c9.887-.612 14.286 4.243 14.286 10.435 0 4.636-1.922 7.319-4.667 9.089-2.256 1.434-5.501 1.857-8.429 1.857-4.392 0-6.131-.306-6.406-1.373-.122-.458-.122-1.158-.122-3.081 0-2.379 0-6.617-.091-14.549-.031-1.981.771-2.089 5.429-2.378m9.68 10.283c0-3.965-3.397-6.288-8.552-6.288-1.524 0-2.134.336-2.134.976 0 1.588.091 10.433.091 11.561 0 .641.519 1.099 2.013 1.099 2.776 0 4.922-.606 5.929-1.247 1.463-.946 2.653-3.142 2.653-6.101"/><path clip-path="url(#b)" d="M36.458 186.153c-.549 0-.702.364-.702.762 0 .366-.03 1.342-.03 2.348 0 1.008.518 1.251 1.525 1.251l8.174-.03c1.037 0 1.373.458 1.373 2.074 0 1.251-.275 1.77-1.251 1.77-.549 0-2.806-.03-5.399-.03-2.531 0-6.466.03-7.258.03-1.282 0-1.434-.549-1.434-1.312 0-.762.091-6.588.091-9.516 0-2.897-.061-7.442-.061-8.388s.244-1.434 1.586-1.434c5.46 0 10.95.122 11.865.122.885 0 1.342.427 1.342 1.922 0 1.342-.457 1.921-1.617 1.921-.457 0-6.618-.121-7.777-.121-.702 0-1.007.365-1.007 1.006v3.354c0 .703.184 1.007 1.007 1.007h7.869c.915 0 1.281.397 1.281 1.648 0 1.097-.244 1.616-1.189 1.616h-8.388z"/><path clip-path="url(#b)" d="M56.984 191.246c2.44 0 3.294-.763 3.294-1.921 0-1.556-.793-2.166-5.642-3.324-4.88-1.16-6.192-3.295-6.192-5.947 0-4.729 3.538-6.741 8.082-6.741 6.009 0 8.114 3.385 8.114 5.733 0 1.099-.488 2.014-2.196 2.014-1.251 0-1.831-.732-2.166-1.557-.732-1.769-1.525-2.592-4.118-2.592-2.165 0-3.263.977-3.263 2.562 0 1.524.519 2.652 4.636 3.477 6.008 1.189 7.259 3.385 7.259 6.192 0 3.203-2.684 5.764-8.296 5.764-5.917 0-8.632-3.537-8.632-5.825 0-1.372.641-2.014 1.769-2.014 2.776 0 1.861 4.179 7.351 4.179"/><path clip-path="url(#b)" d="M69.252 194.297c-1.19 0-1.587-.642-1.587-1.587 0-.275.061-1.616.123-7.503.03-5.581.03-8.57.03-10.034 0-1.038.579-1.495 1.708-1.495h1.158c1.068 0 1.465.52 1.465 1.495v5.673c0 3.568-.062 10.248-.062 11.712 0 1.251-.579 1.739-1.586 1.739h-1.249z"/><path clip-path="url(#b)" d="M86.752 187.709c-1.131 0-1.344-.855-1.344-1.708 0-1.1.244-1.618 1.373-1.618h4.851c1.89 0 2.652.732 2.652 2.502 0 4.178-2.073 8.022-9.455 8.022-7.441 0-10.369-4.759-10.369-10.858 0-2.106.396-4.118 1.464-5.979 1.89-3.263 4.666-4.787 8.662-4.787 5.764 0 9.424 2.836 9.424 6.739 0 1.281-.67 2.288-2.471 2.288-1.22 0-1.982-.701-2.592-2.135-.763-1.556-1.556-2.837-4.147-2.837-2.228 0-3.416.793-4.303 2.257-.67 1.099-1.128 2.471-1.128 4.667 0 4.3 2.196 6.649 5.735 6.649 3.355 0 4.331-1.77 4.331-2.715 0-.306-.062-.487-.427-.487h-2.256z"/><path clip-path="url(#b)" d="M98.466 194.326c-.915 0-1.556-.58-1.556-1.433 0-.611.061-6.985.061-9.547 0-2.562-.061-6.528-.061-6.924 0-1.708.58-2.685 2.593-2.685 1.921 0 2.47.915 3.232 2.166.519.854 3.111 5.033 5.094 8.418 1.83 3.111 2.074 3.752 2.317 3.752.153 0 .214-.092.214-.365 0-.52-.121-2.959-.121-6.254 0-4.909-.093-4.605-.093-6.16 0-.916.457-1.465 1.586-1.465h.823c.977 0 1.557.396 1.557 1.495v16.226c0 1.77-.641 2.775-2.897 2.775-1.739 0-2.623-1.006-3.477-2.47-.61-1.067-3.416-5.674-4.729-8.052-1.83-3.325-1.86-3.874-2.166-3.874-.152 0-.152.091-.152.305 0 .458.092 2.654.092 5.826 0 .64.03 5.521.03 6.832 0 1.006-.793 1.433-1.799 1.433h-.548z"/><path clip-path="url(#b)" d="M35.835 0c-4.873 0-8.837 3.964-8.837 8.836s3.964 8.836 8.837 8.836c4.872 0 8.836-3.964 8.836-8.836s-3.964-8.836-8.836-8.836"/><path clip-path="url(#b)" d="M86.585 0c-4.873 0-8.837 3.964-8.837 8.836s3.964 8.836 8.837 8.836c4.872 0 8.836-3.964 8.836-8.836s-3.964-8.836-8.836-8.836"/><path clip-path="url(#b)" d="M113.23 45.668c-4.872 0-8.836 3.964-8.836 8.836s3.964 8.836 8.836 8.836 8.836-3.964 8.836-8.836-3.963-8.836-8.836-8.836"/><path clip-path="url(#b)" d="M8.836 45.668c-4.872 0-8.836 3.964-8.836 8.836s3.964 8.836 8.836 8.836 8.836-3.964 8.836-8.836-3.964-8.836-8.836-8.836"/><path clip-path="url(#b)" d="M86.585 91.211c-4.873 0-8.837 3.964-8.837 8.836s3.964 8.836 8.837 8.836c4.872 0 8.836-3.964 8.836-8.836s-3.964-8.836-8.836-8.836"/><path clip-path="url(#b)" d="M35.835 91.336c-4.873 0-8.837 3.964-8.837 8.836s3.964 8.836 8.837 8.836c4.872 0 8.836-3.964 8.836-8.836s-3.964-8.836-8.836-8.836"/><path clip-path="url(#b)" d="M101.395 54.504c0-5.613 3.931-10.315 9.182-11.525l-15.173-26.277c-2.169 2.43-5.313 3.971-8.819 3.971-6.527 0-11.837-5.31-11.837-11.836 0-1.038.147-2.04.4-3h-27.877c.252.96.4 1.962.4 3 0 6.526-5.309 11.836-11.836 11.836-3.621 0-6.863-1.638-9.036-4.208l-15.31 26.514c5.251 1.209 9.182 5.912 9.182 11.525s-3.931 10.316-9.181 11.525l15.308 26.515c2.173-2.57 5.415-4.208 9.036-4.208 6.527 0 11.836 5.31 11.836 11.836 0 1.038-.148 2.04-.4 3h27.878c-.253-.96-.4-1.962-.4-3 0-6.526 5.31-11.836 11.837-11.836 3.506 0 6.65 1.541 8.819 3.971l15.172-26.278c-5.251-1.209-9.181-5.911-9.181-11.525"/><path clip-path="url(#b)" fill="#FBE900" d="M77.659 54.38c0-9.182-7.444-16.626-16.626-16.626-9.182 0-16.626 7.444-16.626 16.626 0 9.182 7.444 16.626 16.626 16.626 9.182 0 16.626-7.444 16.626-16.626"/></svg>