<svg xmlns="http://www.w3.org/2000/svg" width="32" height="32"><path d="M16 0c-8.837 0-16 7.163-16 16s7.163 16 16 16 16-7.163 16-16-7.163-16-16-16zm9.195 11.284l.014.614c0 6.269-4.772 13.499-13.499 13.499-2.679 0-5.173-.785-7.273-2.132.371.044.749.066 1.132.066 2.223 0 4.268-.759 5.892-2.031-2.076-.038-3.828-1.41-4.432-3.295.29.055.587.085.893.085.433 0 .852-.058 1.25-.166-2.17-.436-3.806-2.354-3.806-4.652v-.06c.64.355 1.371.569 2.149.593-1.273-.851-2.111-2.303-2.111-3.949 0-.869.234-1.684.642-2.385 2.34 2.87 5.836 4.759 9.779 4.957-.081-.347-.123-.709-.123-1.081 0-2.62 2.124-4.744 4.744-4.744 1.365 0 2.598.576 3.463 1.498 1.081-.213 2.096-.608 3.013-1.151-.354 1.108-1.107 2.038-2.086 2.625.96-.115 1.874-.37 2.725-.747-.636.951-1.44 1.787-2.367 2.456z" fill="#747874"/></svg>